<?xml version="1.0" encoding="UTF-8" standalone="no"?>
<!DOCTYPE svg PUBLIC "-//W3C//DTD SVG 1.1//EN" "http://www.w3.org/Graphics/SVG/1.1/DTD/svg11.dtd">
<svg width="100%" height="100%" viewBox="0 0 218 249" version="1.1" xmlns="http://www.w3.org/2000/svg" xmlns:xlink="http://www.w3.org/1999/xlink" xml:space="preserve" style="fill-rule:evenodd;clip-rule:evenodd;stroke-linejoin:round;stroke-miterlimit:1.41421;">
    <g transform="matrix(1,0,0,1,-541,-789.106)">
        <path d="M615.5,1033C615.5,1034.33 614.973,1035.6 614.036,1036.54C613.098,1037.47 611.826,1038 610.5,1038C595.353,1038 551,1038 551,1038C545.477,1038 541,1033.52 541,1028C541,1001 541,927.229 541,905.868C541,902.095 542.422,898.461 544.982,895.69C560.231,879.181 615.252,819.617 638.982,793.928C641.821,790.854 645.815,789.106 650,789.106C654.185,789.106 658.179,790.854 661.018,793.928C684.748,819.617 739.769,879.181 755.018,895.69C757.578,898.461 759,902.095 759,905.868C759,927.229 759,1001 759,1028C759,1033.52 754.523,1038 749,1038C749,1038 704.647,1038 689.5,1038C688.174,1038 686.902,1037.47 685.964,1036.54C685.027,1035.6 684.5,1034.33 684.5,1033C684.5,1017.11 684.5,967.889 684.5,952C684.5,949.239 682.261,947 679.5,947C666.768,947 633.232,947 620.5,947C617.739,947 615.5,949.239 615.5,952C615.5,967.889 615.5,1017.11 615.5,1033Z" style="fill:rgb(64,64,64);"/>
    </g>
</svg>
