<?xml version="1.0" encoding="UTF-8" standalone="no"?>
<!DOCTYPE svg PUBLIC "-//W3C//DTD SVG 1.1//EN" "http://www.w3.org/Graphics/SVG/1.1/DTD/svg11.dtd">
<svg width="100%" height="100%" viewBox="0 0 72 72" version="1.1" xmlns="http://www.w3.org/2000/svg" xmlns:xlink="http://www.w3.org/1999/xlink" xml:space="preserve" style="fill-rule:evenodd;clip-rule:evenodd;stroke-linejoin:round;stroke-miterlimit:1.41421;">
    <g transform="matrix(1,0,0,1,-404.649,-1806.78)">
        <g transform="matrix(1.4026,0,0,1.4026,-658.519,-454.208)">
            <g transform="matrix(1,0,0,1,-132,0)">
                <path d="M941,1624.75C941,1617.71 935.287,1612 928.25,1612L902.75,1612C895.713,1612 890,1617.71 890,1624.75L890,1650.25C890,1657.29 895.713,1663 902.75,1663L928.25,1663C935.287,1663 941,1657.29 941,1650.25L941,1624.75Z" style="fill:rgb(70,70,70);"/>
            </g>
            <g>
                <g transform="matrix(0.35,0,0,0.35,759.962,1613.04)">
                    <path d="M67.251,23.94C39.637,23.94 17.251,41.637 17.251,63.467C17.251,77.676 26.736,90.132 40.972,97.099C39.926,101.002 37.185,111.242 36.637,113.433C35.957,116.152 37.631,116.117 38.729,115.385C39.589,114.812 52.429,106.081 57.971,102.313C60.978,102.759 64.08,102.995 67.251,102.995C94.865,102.995 117.251,85.298 117.251,63.467C117.251,41.637 94.865,23.94 67.251,23.94" style="fill:rgb(183,182,182);fill-rule:nonzero;"/>
                </g>
                <g id="talk">
                    <g transform="matrix(0.35,0,0,0.35,759.962,1612.04)">
                        <path d="M32.637,54.88C29.581,54.884 29.589,60 32.645,60L37.857,60C37.857,60 37.888,74.191 37.861,77.526C37.869,79.959 43.282,79.932 43.274,77.499L43.298,59.972C43.298,59.972 45.044,59.967 48.484,59.97C51.725,59.972 51.728,54.86 48.487,54.858C44.839,54.858 32.637,54.88 32.637,54.88Z" style="fill:rgb(70,70,70);fill-rule:nonzero;"/>
                    </g>
                    <g transform="matrix(0.35,0,0,0.35,759.962,1612.04)">
                        <path d="M54.338,56.423C53.055,59.247 48.424,72.585 46.885,76.123C45.774,78.679 50.568,80.764 51.68,78.208L52.722,74.56L62.259,74.56C62.259,74.56 61.932,74.711 63.198,78.051C64.223,80.757 69.174,78.881 68.149,76.176C66.685,72.311 61.619,58.396 60.696,56.423C60.269,55.51 58.742,54.858 57.263,54.858C56.038,54.858 54.846,55.305 54.338,56.423ZM57.587,60.679L60.487,69.765L54.442,69.765L57.587,60.679Z" style="fill:rgb(70,70,70);fill-rule:nonzero;"/>
                    </g>
                    <g transform="matrix(0.35,0,0,0.35,759.962,1612.04)">
                        <path d="M69.972,57.258C69.983,61.792 69.998,76.397 69.998,76.397C69.998,76.397 69.582,79.302 72.07,79.302C74.559,79.302 80.083,79.276 82.533,79.276C84.982,79.276 84.969,74.065 82.519,74.065C80.07,74.065 75.601,74.039 75.601,74.039C75.601,74.039 75.622,60.527 75.614,57.244C75.611,55.656 74.204,54.864 72.797,54.864C71.383,54.864 69.969,55.663 69.972,57.258Z" style="fill:rgb(70,70,70);fill-rule:nonzero;"/>
                    </g>
                    <g transform="matrix(0.35,0,0,0.35,759.962,1612.04)">
                        <path d="M85.636,56.537C85.689,58.525 85.572,76.497 85.573,77.83C85.575,79.93 90.925,79.926 90.923,77.825C90.922,75.385 90.923,70.756 90.923,70.756L92.496,69.496L99.366,78.868C100.754,80.701 105.124,77.391 103.735,75.559L96.439,65.952C96.439,65.952 101.392,60.595 103.344,58.656C104.484,57.524 100.957,53.973 99.817,55.104C98.714,56.2 90.958,63.965 90.958,63.965C90.958,63.965 91.028,59.089 90.955,56.393C90.927,55.371 89.671,54.876 88.387,54.876C87.013,54.875 85.606,55.442 85.636,56.537Z" style="fill:rgb(70,70,70);fill-rule:nonzero;"/>
                    </g>
                </g>
            </g>
        </g>
    </g>
</svg>
