<?xml version="1.0" encoding="UTF-8" standalone="no"?>
<!DOCTYPE svg PUBLIC "-//W3C//DTD SVG 1.1//EN" "http://www.w3.org/Graphics/SVG/1.1/DTD/svg11.dtd">
<svg width="100%" height="100%" viewBox="0 0 149 57" version="1.1" xmlns="http://www.w3.org/2000/svg" xmlns:xlink="http://www.w3.org/1999/xlink" xml:space="preserve" style="fill-rule:evenodd;clip-rule:evenodd;stroke-linejoin:round;stroke-miterlimit:1.41421;">
    <g transform="matrix(1,0,0,1,-465.698,-35.8768)">
        <g id="logo" transform="matrix(0.208471,0,0,0.208471,458.42,-42.7374)">
            <path d="M518.667,377.098L666.265,377.098L666.265,377.125C711.245,377.125 747.709,413.589 747.709,458.569L747.736,458.569L747.736,606.167C747.736,628.649 729.483,646.902 707,646.902C684.518,646.902 666.265,628.649 666.265,606.167L666.265,472.503C666.265,464.832 660.053,458.6 652.331,458.569L518.667,458.569C496.185,458.569 477.932,440.316 477.932,417.833C477.932,395.351 496.185,377.098 518.667,377.098Z" style="fill:url(#_Linear1);"/>
            <path d="M365.761,417.847L365.761,417.833C365.761,395.351 384.014,377.098 406.497,377.098C428.979,377.098 447.232,395.351 447.232,417.833L447.232,417.847L447.232,417.847L447.232,602.633L447.08,602.633C447.181,603.798 447.232,604.976 447.232,606.167C447.232,628.649 428.979,646.902 406.497,646.902C384.014,646.902 365.761,628.649 365.761,606.167C365.761,604.976 365.812,603.798 365.913,602.633L365.761,602.633L365.761,417.847L365.761,417.847Z" style="fill:url(#_Linear2);"/>
            <path d="M225.722,417.833L225.722,429.996C225.722,437.667 231.935,443.899 239.656,443.93L253.59,443.93L253.59,417.833C253.591,395.351 271.843,377.098 294.326,377.098C316.808,377.098 335.061,395.351 335.061,417.833L335.061,551.497L334.937,556.403C332.375,606.787 290.663,646.902 239.656,646.902C219.326,646.902 200.473,640.529 184.987,629.674C169.5,640.529 150.647,646.902 130.317,646.902C77.662,646.902 34.913,604.152 34.913,551.497L34.913,417.833C34.913,395.351 53.166,377.098 75.648,377.098C98.13,377.098 116.383,395.351 116.383,417.833C116.383,417.833 116.383,443.93 116.383,443.93L116.383,429.996C116.383,437.667 122.596,443.899 130.317,443.93L144.252,443.93L144.252,417.833C144.252,395.351 162.505,377.098 184.987,377.098C207.469,377.098 225.722,395.351 225.722,417.833ZM130.317,525.401L116.383,525.401L116.383,551.497C116.415,559.219 122.646,565.431 130.317,565.431C138.008,565.431 144.251,559.188 144.252,551.497L144.252,539.335C144.251,531.664 138.039,525.432 130.317,525.401ZM239.656,525.401L225.722,525.401L225.722,551.497C225.754,559.219 231.985,565.431 239.656,565.431C247.347,565.431 253.59,559.187 253.59,551.497L253.59,525.401L253.59,539.335C253.59,531.664 247.378,525.432 239.656,525.401Z" style="fill:url(#_Linear3);"/>
        </g>
    </g>
    <defs>
        <linearGradient id="_Linear1" x1="0" y1="0" x2="1" y2="0" gradientUnits="userSpaceOnUse" gradientTransform="matrix(712.823,0,0,269.804,34.9127,512)"><stop offset="0" style="stop-color:rgb(0,171,255);stop-opacity:1"/><stop offset="1" style="stop-color:rgb(31,135,255);stop-opacity:1"/></linearGradient>
        <linearGradient id="_Linear2" x1="0" y1="0" x2="1" y2="0" gradientUnits="userSpaceOnUse" gradientTransform="matrix(712.823,0,0,269.804,34.9127,512)"><stop offset="0" style="stop-color:rgb(0,171,255);stop-opacity:1"/><stop offset="1" style="stop-color:rgb(31,135,255);stop-opacity:1"/></linearGradient>
        <linearGradient id="_Linear3" x1="0" y1="0" x2="1" y2="0" gradientUnits="userSpaceOnUse" gradientTransform="matrix(712.823,0,0,269.804,34.9127,512)"><stop offset="0" style="stop-color:rgb(0,171,255);stop-opacity:1"/><stop offset="1" style="stop-color:rgb(31,135,255);stop-opacity:1"/></linearGradient>
    </defs>
</svg>
