<?xml version="1.0" encoding="UTF-8" standalone="no"?>
<!DOCTYPE svg PUBLIC "-//W3C//DTD SVG 1.1//EN" "http://www.w3.org/Graphics/SVG/1.1/DTD/svg11.dtd">
<svg width="100%" height="100%" viewBox="0 0 47 39" version="1.1" xmlns="http://www.w3.org/2000/svg" xmlns:xlink="http://www.w3.org/1999/xlink" xml:space="preserve" style="fill-rule:evenodd;clip-rule:evenodd;stroke-linejoin:round;stroke-miterlimit:1.41421;">
    <g transform="matrix(1,0,0,1,-48.5127,-49.2097)">
        <g id="menu-icon" transform="matrix(1,0,0,1,9,2.70975)">
            <g transform="matrix(1.70657e-17,-0.222222,0.400957,1.02136e-16,-155.753,142.944)">
                <path d="M434,490.741C434,488.676 430.975,487 427.25,487L413.75,487C410.025,487 407,488.676 407,490.741L407,599.259C407,601.324 410.025,603 413.75,603L427.25,603C430.975,603 434,601.324 434,599.259L434,490.741Z" style="fill:rgb(64,64,64);"/>
            </g>
            <g transform="matrix(1.70657e-17,-0.222222,0.400957,1.02136e-16,-155.753,159.235)">
                <path d="M434,490.741C434,488.676 430.975,487 427.25,487L413.75,487C410.025,487 407,488.676 407,490.741L407,599.259C407,601.324 410.025,603 413.75,603L427.25,603C430.975,603 434,601.324 434,599.259L434,490.741Z" style="fill:rgb(64,64,64);"/>
            </g>
            <g transform="matrix(1.70657e-17,-0.222222,0.400957,1.02136e-16,-155.753,175.525)">
                <path d="M434,490.741C434,488.676 430.975,487 427.25,487L413.75,487C410.025,487 407,488.676 407,490.741L407,599.259C407,601.324 410.025,603 413.75,603L427.25,603C430.975,603 434,601.324 434,599.259L434,490.741Z" style="fill:rgb(64,64,64);"/>
            </g>
        </g>
    </g>
</svg>
