<?xml version="1.0" encoding="UTF-8" standalone="no"?>
<!DOCTYPE svg PUBLIC "-//W3C//DTD SVG 1.1//EN" "http://www.w3.org/Graphics/SVG/1.1/DTD/svg11.dtd">
<svg width="100%" height="100%" viewBox="0 0 51 51" version="1.1" xmlns="http://www.w3.org/2000/svg" xmlns:xlink="http://www.w3.org/1999/xlink" xml:space="preserve" style="fill-rule:evenodd;clip-rule:evenodd;stroke-linejoin:round;stroke-miterlimit:1.41421;">
    <g transform="matrix(1,0,0,1,-991.584,-43.1284)">
        <g id="search-icon" transform="matrix(1,0,0,1,-10,-0.677792)">
            <g transform="matrix(0.186654,-0.186654,0.186654,0.186654,863.523,60.8549)">
                <path d="M415.5,355C456.618,355 490,388.382 490,429.5C490,470.618 456.618,504 415.5,504C374.382,504 341,470.618 341,429.5C341,388.382 374.382,355 415.5,355ZM415.5,377.391C444.26,377.391 467.609,400.74 467.609,429.5C467.609,458.26 444.26,481.609 415.5,481.609C386.74,481.609 363.391,458.26 363.391,429.5C363.391,400.74 386.74,377.391 415.5,377.391Z" style="fill:rgb(64,64,64);"/>
            </g>
            <g transform="matrix(0.157135,-0.157135,0.155509,0.155509,890.981,65.3531)">
                <path d="M434,493.821C434,490.056 430.975,487 427.25,487L413.75,487C410.025,487 407,490.056 407,493.821L407,596.179C407,599.944 410.025,603 413.75,603L427.25,603C430.975,603 434,599.944 434,596.179L434,493.821Z" style="fill:rgb(64,64,64);"/>
            </g>
        </g>
    </g>
</svg>
