<?xml version="1.0" encoding="UTF-8" standalone="no"?>
<!DOCTYPE svg PUBLIC "-//W3C//DTD SVG 1.1//EN" "http://www.w3.org/Graphics/SVG/1.1/DTD/svg11.dtd">
<svg width="100%" height="100%" viewBox="0 0 43 46" version="1.1" xmlns="http://www.w3.org/2000/svg" xmlns:xlink="http://www.w3.org/1999/xlink" xml:space="preserve" style="fill-rule:evenodd;clip-rule:evenodd;stroke-linejoin:round;stroke-miterlimit:1.41421;">
    <g transform="matrix(1,0,0,1,-36.5127,-378.324)">
        <g transform="matrix(1,0,0,1,0,-1)">
            <g transform="matrix(1.12484,0,0,1.24898,-6.8081,-101.84)">
                <g transform="matrix(0.222222,3.45854e-18,-3.08779e-17,0.159578,-51.9317,325.53)">
                    <path d="M434,495.466C434,490.793 430.975,487 427.25,487L413.75,487C410.025,487 407,490.793 407,495.466L407,594.534C407,599.207 410.025,603 413.75,603L427.25,603C430.975,603 434,599.207 434,594.534L434,495.466Z" style="fill:rgb(64,64,64);"/>
                </g>
                <g transform="matrix(0.222222,3.45854e-18,-3.75502e-17,0.19406,-43.9317,304.737)">
                    <path d="M434,493.961C434,490.119 430.975,487 427.25,487L413.75,487C410.025,487 407,490.119 407,493.961L407,596.039C407,599.881 410.025,603 413.75,603L427.25,603C430.975,603 434,599.881 434,596.039L434,493.961Z" style="fill:rgb(64,64,64);"/>
                </g>
                <g transform="matrix(0.222222,3.45854e-18,-6.09033e-17,0.31475,-35.9317,231.961)">
                    <path d="M434,491.292C434,488.923 430.975,487 427.25,487L413.75,487C410.025,487 407,488.923 407,491.292L407,598.708C407,601.077 410.025,603 413.75,603L427.25,603C430.975,603 434,601.077 434,598.708L434,491.292Z" style="fill:rgb(64,64,64);"/>
                </g>
                <g transform="matrix(0.222222,3.45854e-18,-3.04517e-17,0.157375,-27.9317,326.858)">
                    <path d="M434,495.584C434,490.846 430.975,487 427.25,487L413.75,487C410.025,487 407,490.846 407,495.584L407,594.416C407,599.154 410.025,603 413.75,603L427.25,603C430.975,603 434,599.154 434,594.416L434,495.584Z" style="fill:rgb(64,64,64);"/>
                </g>
                <g transform="matrix(0.222222,3.45854e-18,-4.25544e-17,0.219922,-19.9317,289.142)">
                    <path d="M434,493.143C434,489.752 430.975,487 427.25,487L413.75,487C410.025,487 407,489.752 407,493.143L407,596.857C407,600.248 410.025,603 413.75,603L427.25,603C430.975,603 434,600.248 434,596.857L434,493.143Z" style="fill:rgb(64,64,64);"/>
                </g>
            </g>
        </g>
    </g>
</svg>
