<?xml version="1.0" encoding="UTF-8" standalone="no"?>
<!DOCTYPE svg PUBLIC "-//W3C//DTD SVG 1.1//EN" "http://www.w3.org/Graphics/SVG/1.1/DTD/svg11.dtd">
<svg width="100%" height="100%" viewBox="0 0 72 72" version="1.1" xmlns="http://www.w3.org/2000/svg" xmlns:xlink="http://www.w3.org/1999/xlink" xml:space="preserve" style="fill-rule:evenodd;clip-rule:evenodd;stroke-linejoin:round;stroke-miterlimit:1.41421;">
    <g transform="matrix(1,0,0,1,-504.234,-1806.78)">
        <g transform="matrix(1.4026,0,0,1.4026,-651.506,-454.208)">
            <g transform="matrix(1,0,0,1,-66,0)">
                <path d="M941,1624.75C941,1617.71 935.287,1612 928.25,1612L902.75,1612C895.713,1612 890,1617.71 890,1624.75L890,1650.25C890,1657.29 895.713,1663 902.75,1663L928.25,1663C935.287,1663 941,1657.29 941,1650.25L941,1624.75Z" style="fill:rgb(70,70,70);"/>
            </g>
            <g transform="matrix(0.0858162,0,0,0.0858162,827.531,1615.53)">
                <path d="M181.528,419.132C333.026,419.132 415.872,293.622 415.872,184.788C415.872,181.22 415.8,177.669 415.636,174.141C431.716,162.515 445.698,148.007 456.726,131.494C441.968,138.05 426.086,142.467 409.427,144.46C426.43,134.264 439.486,118.132 445.642,98.898C429.726,108.332 412.105,115.194 393.344,118.89C378.316,102.881 356.91,92.868 333.224,92.868C287.736,92.868 250.847,129.754 250.847,175.227C250.847,181.69 251.571,187.976 252.986,194.006C184.533,190.564 123.832,157.788 83.216,107.951C76.134,120.122 72.06,134.264 72.06,149.351C72.06,177.926 86.602,203.15 108.711,217.908C95.204,217.493 82.51,213.779 71.41,207.604C71.392,207.947 71.392,208.294 71.392,208.656C71.392,248.548 99.785,281.85 137.47,289.403C130.552,291.285 123.272,292.3 115.756,292.3C110.451,292.3 105.291,291.774 100.274,290.814C110.757,323.537 141.162,347.349 177.219,348.021C149.021,370.112 113.512,383.276 74.923,383.276C68.275,383.276 61.722,382.896 55.275,382.137C91.728,405.497 135.006,419.132 181.528,419.132" style="fill:rgb(183,182,182);fill-rule:nonzero;"/>
            </g>
        </g>
    </g>
</svg>
